<svg role="img" viewBox="0 0 24 24" xmlns="http://www.w3.org/2000/svg">
  <title>Canva</title>
  <defs>
    <linearGradient id="canva-gradient" x1="0%" y1="0%" x2="100%" y2="100%">
      <stop offset="0%" stop-color="#00C4CC" />
      <stop offset="45%" stop-color="#7D2AE8" />
      <stop offset="100%" stop-color="#FF7D54" />
    </linearGradient>
  </defs>
  <circle cx="12" cy="12" r="11" fill="url(#canva-gradient)" />
  <path
    fill="#fff"
    d="M8.2 7.5c2.1-1.4 5.2-.8 6.8 1.4 1.1 1.5 1.1 3.5.1 5l-1.1 1.6c-.4.6-1.2.7-1.8.3-.6-.4-.7-1.2-.3-1.8l1-1.5c.6-.9.6-2.1-.1-3-.9-1.2-2.6-1.6-4-.9-1.5.8-2 2.6-1.2 4.1l1 1.5c.4.6.3 1.4-.3 1.8-.6.4-1.4.3-1.8-.3l-1.1-1.6c-1-1.5-1-3.5.6-5.6z"
  />
</svg>
